<?xml version="1.0" encoding="UTF-8" standalone="no"?>
<!DOCTYPE svg PUBLIC "-//W3C//DTD SVG 1.1//EN" "http://www.w3.org/Graphics/SVG/1.1/DTD/svg11.dtd">
<svg width="100%" height="100%" viewBox="0 0 5556 2072" version="1.1" xmlns="http://www.w3.org/2000/svg" xmlns:xlink="http://www.w3.org/1999/xlink" xml:space="preserve" xmlns:serif="http://www.serif.com/" style="fill-rule:evenodd;clip-rule:evenodd;stroke-linejoin:round;stroke-miterlimit:1.41421;">
    <g id="Layer-1" serif:id="Layer 1" transform="matrix(5.55556,0,0,5.55556,0,0)">
        <g transform="matrix(1,0,0,1,181.142,194.963)">
            <path d="M0,12.556C41.407,-6.423 60.857,-18.65 58.349,-24.124C61.905,-36.969 60.529,-50.274 54.219,-64.041C53.971,-64.583 52.697,-66.787 50.401,-70.654L49.019,-70.019L52.522,-62.378C55.428,-56.037 54.293,-45.776 49.117,-31.599C45.865,-30.109 43.875,-25.295 43.145,-17.155C40.798,-11.685 27.837,-3.548 4.261,7.257L-75.737,43.924C-77.146,44.57 -81.558,44.1 -88.975,42.515L-89.625,42.814L-88.991,44.196C-88.196,45.93 -86.252,48.385 -83.158,51.557C-81.994,61.263 -80.958,69.799 -80.051,77.177L-73.747,83.21C-74.335,76.886 -75.739,65.262 -77.966,48.291L0,12.556Z" style="fill:rgb(0,0,255);fill-rule:nonzero;"/>
        </g>
        <g transform="matrix(106.043,0.430977,0.581819,-143.158,132.335,150.207)">
            <path d="M0.07,0.676L-0.813,-0.013C-0.989,-0.15 -0.981,-0.367 -0.796,-0.496L-0.389,-0.783C-0.397,-0.729 -0.407,-0.671 -0.416,-0.608C-0.407,-0.592 -0.395,-0.582 -0.381,-0.577L0.633,-0.23C0.815,-0.167 0.896,-0.12 0.876,-0.088C0.892,-0.013 0.886,0.047 0.858,0.093L0.848,0.107C0.826,0.142 0.752,0.138 0.626,0.095L-0.55,-0.301C-0.559,-0.304 -0.565,-0.302 -0.569,-0.296L-0.575,-0.286C-0.616,-0.094 -0.63,0.005 -0.618,0.009C-0.607,0.021 -0.596,0.028 -0.585,0.032L0.761,0.486C0.827,0.509 0.887,0.525 0.94,0.535L0.722,0.688C0.633,0.752 0.518,0.783 0.403,0.782C0.282,0.782 0.161,0.746 0.07,0.676Z" style="fill:url(#_Radial1);fill-rule:nonzero;"/>
        </g>
        <g transform="matrix(1,0,0,1,220.859,166.329)">
            <path d="M0,-76.276L-124.874,-19.041C-127.313,-17.923 -132.199,-18.207 -139.532,-19.897L-140.182,-19.599L-139.847,-18.867C-139.449,-18 -137.406,-15.329 -133.716,-10.857C-133.02,-9.339 -132.29,-4.098 -131.527,4.864L-129.847,4.881L-129.115,4.546C-126.135,3.18 -125.553,-0.989 -127.371,-7.96C-128.193,-12.042 -128.115,-14.308 -127.14,-14.755L6.027,-75.791C8.682,-77.008 12.48,-78.454 17.419,-80.129L18.068,-80.427L17.734,-81.157C11.547,-80.487 5.637,-78.86 0,-76.276" style="fill:rgb(0,0,255);fill-rule:nonzero;"/>
        </g>
        <g transform="matrix(103.163,0.419272,0.566017,-139.27,233.514,229.285)">
            <path d="M0.421,0.51C0.407,0.379 0.341,0.277 0.224,0.202C0.15,0.152 0.034,0.1 -0.124,0.046L-0.872,-0.21C-0.891,-0.217 -0.882,-0.31 -0.844,-0.489C-0.838,-0.519 -0.849,-0.539 -0.879,-0.549L-0.923,-0.564L-0.786,-0.66C-0.596,-0.794 -0.296,-0.788 -0.116,-0.647L0.792,0.061C0.973,0.202 0.965,0.424 0.775,0.558L0.387,0.831C0.405,0.746 0.416,0.639 0.421,0.51Z" style="fill:url(#_Radial2);fill-rule:nonzero;"/>
        </g>
        <g transform="matrix(1,0,0,1,405.922,216.971)">
            <path d="M0,-4.485L0.141,-39.201L-18.72,-39.277L-18.861,-4.562L0,-4.485ZM-65.491,78.917L-64.92,-61.569C-64.907,-64.931 -64.121,-68.126 -62.587,-71.067C-61.268,-73.598 -59.51,-75.84 -57.362,-77.726C-55.249,-79.578 -52.817,-81.032 -50.13,-82.049C-47.406,-83.076 -44.567,-83.59 -41.685,-83.578L23.466,-83.314C26.345,-83.302 29.176,-82.766 31.882,-81.722C34.569,-80.679 36.989,-79.207 39.082,-77.344C41.222,-75.431 42.961,-73.178 44.262,-70.638C45.776,-67.668 46.534,-64.468 46.52,-61.116L46.199,17.922C46.185,21.28 45.402,24.474 43.869,27.414C42.543,29.956 40.784,32.198 38.639,34.08C36.522,35.937 34.084,37.394 31.393,38.407C28.694,39.43 25.854,39.943 22.965,39.931L-19.041,39.761L-19.201,79.105L-65.491,78.917Z" style="fill:rgb(0,0,123);fill-rule:nonzero;"/>
        </g>
        <g transform="matrix(99.1736,0.403059,0.403059,-99.1736,346.895,214.618)">
            <path d="M0.109,0.746C0.088,0.738 0.07,0.728 0.055,0.714C0.039,0.7 0.026,0.683 0.016,0.664C0.005,0.643 0,0.621 0,0.597L0,-0.758L0.343,-0.758L0.343,-0.361L0.828,-0.361C0.85,-0.361 0.871,-0.357 0.891,-0.349C0.911,-0.342 0.93,-0.331 0.945,-0.317C0.961,-0.303 0.974,-0.286 0.984,-0.268C0.995,-0.247 1,-0.224 1,-0.2L1,0.597C1,0.621 0.995,0.643 0.984,0.664C0.974,0.683 0.961,0.7 0.945,0.714C0.93,0.728 0.912,0.738 0.891,0.746C0.871,0.754 0.85,0.758 0.828,0.758L0.172,0.758C0.171,0.758 0.171,0.758 0.171,0.758C0.15,0.758 0.129,0.754 0.109,0.746ZM0.609,-0.038L0.343,-0.038L0.343,0.397C0.343,0.401 0.344,0.405 0.346,0.408C0.348,0.414 0.352,0.419 0.357,0.423C0.361,0.427 0.366,0.43 0.372,0.432C0.378,0.435 0.384,0.436 0.391,0.436L0.609,0.436C0.616,0.436 0.622,0.435 0.628,0.432C0.634,0.43 0.639,0.427 0.643,0.423C0.648,0.419 0.652,0.414 0.654,0.408C0.656,0.405 0.657,0.401 0.657,0.397L0.657,-0.001C0.657,-0.005 0.656,-0.008 0.655,-0.011C0.652,-0.017 0.648,-0.021 0.644,-0.025C0.639,-0.029 0.634,-0.032 0.628,-0.034C0.622,-0.037 0.616,-0.038 0.609,-0.038C0.609,-0.038 0.609,-0.038 0.609,-0.038Z" style="fill:url(#_Linear3);fill-rule:nonzero;"/>
        </g>
        <g transform="matrix(1,0,0,1,438.375,74.7168)">
            <path d="M0,182.224L0.652,21.833C0.665,18.471 1.451,15.275 2.986,12.335C4.304,9.804 6.062,7.562 8.21,5.677C10.323,3.824 12.755,2.37 15.442,1.353C18.166,0.326 21.005,-0.188 23.887,-0.176L90.427,0.094L90.247,44.301L46.852,44.125L46.791,59.167L90.186,59.344L90.007,103.551L46.611,103.374L46.29,182.412L0,182.224Z" style="fill:rgb(0,0,123);fill-rule:nonzero;"/>
        </g>
        <g transform="matrix(77.4182,0.314641,0.314641,-77.4182,444.88,165.719)">
            <path d="M0.139,1.084C0.113,1.075 0.09,1.061 0.07,1.043C0.05,1.025 0.033,1.004 0.021,0.98C0.007,0.953 0,0.924 0,0.893L0,-1.099L0.439,-1.099L0.439,-0.078L1,-0.078L1,0.334L0.439,0.334L0.439,0.638C0.439,0.643 0.44,0.647 0.443,0.651C0.446,0.659 0.451,0.665 0.457,0.67C0.463,0.676 0.469,0.679 0.477,0.682C0.485,0.685 0.492,0.687 0.501,0.687L1,0.687L1,1.099L0.22,1.099C0.219,1.099 0.219,1.099 0.219,1.099C0.192,1.099 0.165,1.094 0.139,1.084Z" style="fill:url(#_Linear4);fill-rule:nonzero;"/>
        </g>
        <g transform="matrix(1,0,0,1,537.55,134.446)">
            <path d="M0,122.898C-2.894,122.886 -5.734,122.348 -8.439,121.296C-11.105,120.268 -13.53,118.792 -15.633,116.914C-17.761,115.018 -19.504,112.758 -20.807,110.203C-22.31,107.268 -23.069,104.067 -23.055,100.701L-22.734,21.662C-22.72,18.3 -21.935,15.105 -20.401,12.164C-19.082,9.633 -17.323,7.391 -15.176,5.506C-13.063,3.653 -10.631,2.199 -7.944,1.183C-5.22,0.155 -2.381,-0.359 0.501,-0.347L65.653,-0.082C68.533,-0.07 71.365,0.465 74.069,1.51C76.757,2.553 79.177,4.025 81.27,5.888C83.405,7.796 85.144,10.048 86.447,12.59C87.963,15.564 88.721,18.765 88.707,22.115L88.296,123.257L0,122.898Z" style="fill:rgb(0,0,123);fill-rule:nonzero;"/>
        </g>
        <g transform="matrix(99.1741,0.403061,0.403061,-99.1741,520.789,195.652)">
            <path d="M0.109,0.548C0.088,0.54 0.07,0.529 0.055,0.515C0.039,0.501 0.026,0.485 0.016,0.466C0.005,0.445 0,0.422 0,0.398L0,-0.398C0,-0.422 0.005,-0.445 0.016,-0.466C0.026,-0.485 0.039,-0.501 0.055,-0.515C0.07,-0.529 0.089,-0.54 0.109,-0.548C0.129,-0.556 0.15,-0.56 0.172,-0.56L1,-0.56L1,-0.236L0.391,-0.236C0.384,-0.236 0.378,-0.235 0.372,-0.233C0.366,-0.23 0.361,-0.227 0.356,-0.223C0.352,-0.219 0.348,-0.215 0.345,-0.21C0.344,-0.206 0.343,-0.203 0.343,-0.199L0.343,-0.162L1,-0.162L1,0.398C1,0.422 0.995,0.445 0.984,0.466C0.974,0.485 0.961,0.501 0.945,0.515C0.93,0.529 0.912,0.54 0.891,0.548C0.871,0.556 0.85,0.56 0.828,0.56L0.172,0.559C0.171,0.559 0.171,0.559 0.171,0.559C0.15,0.559 0.129,0.555 0.109,0.548ZM0.343,0.162L0.343,0.199C0.343,0.203 0.344,0.206 0.346,0.21C0.348,0.215 0.352,0.22 0.357,0.225C0.361,0.229 0.366,0.232 0.372,0.234C0.378,0.236 0.384,0.237 0.391,0.237L0.609,0.237C0.616,0.237 0.622,0.236 0.628,0.234C0.634,0.232 0.639,0.229 0.643,0.225C0.648,0.22 0.652,0.215 0.654,0.21C0.656,0.206 0.657,0.203 0.657,0.199L0.657,0.162L0.343,0.162Z" style="fill:url(#_Linear5);fill-rule:nonzero;"/>
        </g>
        <g transform="matrix(46.2899,0.188,0.188,-46.2899,612.44,196.026)">
            <rect x="0" y="-1.331" width="1" height="2.662" style="fill:url(#_Linear6);"/>
        </g>
        <g transform="matrix(34.0229,0.138004,0.138004,-34.0229,618.573,196.049)">
            <rect x="0" y="-1.631" width="1" height="3.262" style="fill:url(#_Linear7);"/>
        </g>
        <g transform="matrix(1,0,0,1,644.822,75.5559)">
            <path d="M0,182.224L0.652,21.833C0.666,18.468 1.452,15.271 2.989,12.33C4.302,9.806 6.061,7.565 8.21,5.677C10.32,3.825 12.753,2.371 15.442,1.354C18.166,0.326 21.005,-0.188 23.887,-0.176L90.427,0.094L90.247,44.301L46.852,44.125L46.791,59.167L90.186,59.344L90.006,103.551L46.611,103.374L46.29,182.412L0,182.224Z" style="fill:rgb(0,0,123);fill-rule:nonzero;"/>
        </g>
        <g transform="matrix(77.4177,0.314639,0.314639,-77.4177,651.327,166.558)">
            <path d="M0.139,1.084C0.113,1.075 0.09,1.061 0.07,1.043C0.05,1.025 0.033,1.004 0.021,0.98C0.007,0.953 0,0.924 0,0.893L0,-1.099L0.439,-1.099L0.439,-0.078L1,-0.078L1,0.334L0.439,0.334L0.439,0.638C0.439,0.643 0.44,0.647 0.443,0.651C0.446,0.659 0.451,0.665 0.457,0.671C0.463,0.676 0.469,0.679 0.477,0.682C0.485,0.685 0.492,0.687 0.501,0.687L1,0.687L1,1.099L0.22,1.099C0.219,1.099 0.219,1.099 0.219,1.099C0.192,1.099 0.165,1.094 0.139,1.084Z" style="fill:url(#_Linear8);fill-rule:nonzero;"/>
        </g>
        <g transform="matrix(1,0,0,1,743.996,135.285)">
            <path d="M0,122.898C-2.894,122.886 -5.734,122.348 -8.439,121.296C-11.108,120.267 -13.534,118.79 -15.635,116.911C-17.757,115.023 -19.5,112.764 -20.805,110.206C-22.31,107.267 -23.068,104.066 -23.055,100.701L-22.733,21.662C-22.72,18.301 -21.935,15.107 -20.402,12.167C-19.08,9.63 -17.319,7.387 -15.171,5.502C-13.064,3.653 -10.632,2.199 -7.942,1.182C-5.22,0.155 -2.382,-0.359 0.501,-0.347L65.653,-0.082C68.533,-0.07 71.365,0.465 74.069,1.51C76.754,2.553 79.173,4.023 81.266,5.884C83.407,7.798 85.146,10.051 86.447,12.59C87.963,15.564 88.721,18.765 88.707,22.115L88.296,123.257L0,122.898Z" style="fill:rgb(0,0,123);fill-rule:nonzero;"/>
        </g>
        <g transform="matrix(99.1736,0.403059,0.403059,-99.1736,727.235,196.492)">
            <path d="M0.109,0.548C0.088,0.54 0.07,0.529 0.055,0.515C0.039,0.501 0.026,0.485 0.016,0.466C0.005,0.445 0,0.422 0,0.398L0,-0.398C0,-0.422 0.005,-0.445 0.016,-0.466C0.026,-0.485 0.039,-0.501 0.055,-0.515C0.07,-0.529 0.089,-0.54 0.109,-0.548C0.129,-0.556 0.15,-0.56 0.172,-0.56L1,-0.56L1,-0.236L0.391,-0.236C0.384,-0.236 0.378,-0.235 0.372,-0.233C0.366,-0.23 0.361,-0.227 0.356,-0.223C0.352,-0.219 0.348,-0.215 0.345,-0.21C0.344,-0.206 0.343,-0.203 0.343,-0.199L0.343,-0.162L1,-0.162L1,0.398C1,0.422 0.995,0.445 0.984,0.466C0.974,0.485 0.961,0.501 0.945,0.515C0.93,0.529 0.912,0.54 0.891,0.548C0.871,0.556 0.85,0.56 0.828,0.56L0.172,0.56C0.171,0.56 0.171,0.56 0.171,0.56C0.15,0.559 0.129,0.556 0.109,0.548ZM0.343,0.162L0.343,0.199C0.343,0.203 0.344,0.206 0.345,0.21C0.348,0.215 0.352,0.22 0.357,0.225C0.361,0.229 0.366,0.232 0.372,0.234C0.378,0.236 0.384,0.237 0.391,0.237L0.609,0.237C0.616,0.237 0.622,0.236 0.628,0.234C0.634,0.232 0.639,0.229 0.643,0.225C0.648,0.22 0.652,0.215 0.654,0.21C0.656,0.206 0.657,0.203 0.657,0.199L0.657,0.162L0.343,0.162Z" style="fill:url(#_Linear9);fill-rule:nonzero;"/>
        </g>
        <g transform="matrix(1,0,0,1,818.635,135.511)">
            <path d="M0,122.975L0.411,21.833C0.425,18.473 1.209,15.278 2.743,12.338C4.065,9.802 5.825,7.558 7.973,5.673C10.081,3.824 12.513,2.371 15.202,1.353C17.924,0.326 20.762,-0.188 23.645,-0.176L88.797,0.089C91.677,0.101 94.509,0.636 97.213,1.681C99.899,2.724 102.318,4.194 104.41,6.055C106.552,7.969 108.291,10.222 109.591,12.761C111.108,15.735 111.865,18.936 111.852,22.286L111.705,58.276L65.416,58.088L65.472,44.202L46.611,44.125L46.29,123.163L0,122.975Z" style="fill:rgb(0,0,123);fill-rule:nonzero;"/>
        </g>
        <g transform="matrix(99.1736,0.403059,0.403059,-99.1736,825.019,196.888)">
            <path d="M0.109,0.548C0.088,0.54 0.07,0.529 0.055,0.515C0.039,0.501 0.026,0.485 0.016,0.466C0.005,0.445 0,0.422 0,0.398L0,-0.56L0.343,-0.56L0.343,0.199C0.343,0.203 0.344,0.206 0.346,0.21C0.348,0.215 0.352,0.22 0.357,0.225C0.361,0.229 0.366,0.232 0.372,0.234C0.378,0.236 0.384,0.237 0.391,0.237L0.609,0.237C0.616,0.237 0.622,0.236 0.628,0.234C0.634,0.232 0.639,0.229 0.643,0.225C0.648,0.22 0.652,0.215 0.654,0.21C0.656,0.206 0.657,0.203 0.657,0.199L0.657,0.097L1,0.097L1,0.398C1,0.422 0.995,0.445 0.984,0.466C0.974,0.485 0.961,0.501 0.945,0.515C0.93,0.529 0.912,0.54 0.891,0.548C0.871,0.556 0.85,0.56 0.828,0.56L0.172,0.56C0.171,0.56 0.171,0.56 0.171,0.56C0.15,0.559 0.129,0.556 0.109,0.548Z" style="fill:url(#_Linear10);fill-rule:nonzero;"/>
        </g>
        <g transform="matrix(1,0,0,1,407.287,210.81)">
            <path d="M0,7.815C0.64,7.818 1.247,7.706 1.856,7.476C2.487,7.238 3.012,6.93 3.465,6.532C3.897,6.153 4.241,5.713 4.514,5.192C4.682,4.869 4.758,4.541 4.759,4.131L4.92,-35.33C4.921,-35.74 4.847,-36.07 4.679,-36.4C4.394,-36.955 4.021,-37.446 3.545,-37.89C3.122,-38.284 2.629,-38.587 2.044,-38.814C1.438,-39.048 0.829,-39.165 0.191,-39.168L-21.449,-39.256C-22.089,-39.258 -22.697,-39.147 -23.31,-38.915C-23.893,-38.695 -24.386,-38.397 -24.813,-38.005C-25.296,-37.564 -25.67,-37.079 -25.962,-36.519C-26.131,-36.195 -26.207,-35.868 -26.208,-35.456L-26.384,7.708L0,7.815ZM-60.697,78.97L-60.151,-55.383C-60.141,-57.756 -59.591,-60.005 -58.513,-62.069C-57.546,-63.927 -56.255,-65.572 -54.68,-66.956C-53.123,-68.32 -51.322,-69.395 -49.324,-70.151C-47.306,-70.912 -45.205,-71.293 -43.075,-71.284L22.077,-71.019C24.205,-71.011 26.301,-70.614 28.308,-69.839C30.306,-69.064 32.097,-67.975 33.641,-66.601C35.208,-65.2 36.483,-63.548 37.439,-61.682C38.501,-59.598 39.032,-57.347 39.023,-54.98L38.701,24.058C38.692,26.428 38.142,28.676 37.066,30.74C36.092,32.606 34.802,34.25 33.23,35.63C31.669,37 29.865,38.075 27.867,38.828C25.866,39.586 23.763,39.967 21.626,39.959L-26.514,39.763L-26.674,79.108L-60.697,78.97Z" style="fill:rgb(230,231,232);fill-rule:nonzero;"/>
        </g>
        <g transform="matrix(1,0,0,1,418.18,214.448)">
            <path d="M0,0.518L0.16,-38.943C0.166,-40.331 -0.138,-41.624 -0.75,-42.823C-1.363,-44.021 -2.169,-45.086 -3.167,-46.015C-4.167,-46.945 -5.321,-47.662 -6.63,-48.17C-7.941,-48.677 -9.288,-48.933 -10.677,-48.939L-32.317,-49.027C-33.706,-49.032 -35.057,-48.787 -36.37,-48.291C-37.685,-47.794 -38.845,-47.086 -39.851,-46.164C-40.858,-45.243 -41.672,-44.185 -42.294,-42.992C-42.917,-41.798 -43.229,-40.508 -43.235,-39.119L-43.435,10.179L-10.918,10.311C-9.529,10.317 -8.18,10.073 -6.865,9.575C-5.551,9.079 -4.392,8.39 -3.384,7.506C-2.379,6.624 -1.565,5.586 -0.942,4.392C-0.32,3.199 -0.006,1.908 0,0.518M21.675,20.396C21.669,21.784 21.355,23.076 20.734,24.268C20.11,25.463 19.296,26.501 18.291,27.383C17.284,28.266 16.123,28.957 14.811,29.451C13.496,29.949 12.146,30.193 10.758,30.188L-43.516,29.967L-43.676,69.312L-65.431,69.223L-64.91,-58.996C-64.905,-60.385 -64.592,-61.674 -63.969,-62.869C-63.347,-64.062 -62.533,-65.1 -61.526,-65.983C-60.521,-66.865 -59.36,-67.555 -58.046,-68.052C-56.733,-68.548 -55.381,-68.794 -53.992,-68.788L11.159,-68.523C12.547,-68.518 13.895,-68.261 15.206,-67.755C16.514,-67.247 17.669,-66.548 18.669,-65.658C19.667,-64.765 20.473,-63.721 21.086,-62.523C21.698,-61.324 22.002,-60.031 21.996,-58.643L21.675,20.396Z" style="fill:rgb(0,0,123);fill-rule:nonzero;"/>
        </g>
        <g transform="matrix(1,0,0,1,444.534,80.8032)">
            <path d="M0,170.029L0.627,15.772C0.637,13.399 1.187,11.15 2.264,9.086C3.232,7.228 4.523,5.583 6.098,4.199C7.655,2.835 9.456,1.76 11.454,1.004C13.472,0.243 15.572,-0.138 17.703,-0.129L78.11,0.116L77.98,32.056L39.329,31.899C38.689,31.897 38.08,32.008 37.466,32.24C36.885,32.459 36.392,32.758 35.964,33.15C35.482,33.59 35.108,34.076 34.816,34.636C34.647,34.96 34.571,35.287 34.569,35.699L34.474,59.189L77.869,59.366L77.739,91.306L34.344,91.129L34.023,170.167L0,170.029Z" style="fill:rgb(230,231,232);fill-rule:nonzero;"/>
        </g>
        <g transform="matrix(1,0,0,1,516.165,165.664)">
            <path d="M0,0.286L-43.395,0.11L-43.717,79.148L-65.472,79.059L-64.87,-69.065C-64.865,-70.453 -64.552,-71.743 -63.929,-72.937C-63.307,-74.13 -62.493,-75.168 -61.486,-76.052C-60.481,-76.934 -59.32,-77.624 -58.006,-78.121C-56.693,-78.616 -55.341,-78.862 -53.952,-78.857L0.321,-78.636L0.241,-58.963L-32.277,-59.095C-33.666,-59.101 -35.017,-58.855 -36.33,-58.36C-37.645,-57.862 -38.805,-57.155 -39.811,-56.233C-40.818,-55.312 -41.632,-54.253 -42.254,-53.061C-42.877,-51.866 -43.189,-50.576 -43.195,-49.188L-43.315,-19.563L0.08,-19.387L0,0.286Z" style="fill:rgb(0,0,123);fill-rule:nonzero;"/>
        </g>
        <g transform="matrix(1,0,0,1,586.005,211.879)">
            <path d="M0,-31.99L0.015,-35.693C0.017,-36.103 -0.058,-36.433 -0.226,-36.764C-0.51,-37.318 -0.883,-37.809 -1.359,-38.253C-1.782,-38.646 -2.275,-38.95 -2.861,-39.177C-3.466,-39.411 -4.075,-39.528 -4.713,-39.53L-26.354,-39.618C-26.993,-39.621 -27.602,-39.51 -28.215,-39.278C-28.798,-39.058 -29.29,-38.76 -29.717,-38.368C-30.201,-37.926 -30.575,-37.442 -30.867,-36.881C-31.036,-36.558 -31.112,-36.23 -31.113,-35.819L-31.128,-32.117L0,-31.99ZM-48.43,39.331C-50.57,39.322 -52.671,38.924 -54.674,38.146C-56.657,37.381 -58.454,36.29 -60.002,34.907C-61.563,33.516 -62.842,31.858 -63.797,29.983C-64.853,27.923 -65.387,25.668 -65.377,23.292L-65.056,-55.746C-65.046,-58.119 -64.495,-60.368 -63.418,-62.432C-62.45,-64.29 -61.16,-65.935 -59.584,-67.318C-58.028,-68.683 -56.227,-69.758 -54.228,-70.514C-52.211,-71.275 -50.11,-71.655 -47.979,-71.647L17.172,-71.382C19.301,-71.373 21.398,-70.976 23.403,-70.202C25.401,-69.426 27.192,-68.338 28.736,-66.964C30.301,-65.565 31.577,-63.913 32.533,-62.046C33.597,-59.958 34.128,-57.708 34.118,-55.343L33.893,0.204L-31.259,-0.061L-31.274,3.641C-31.275,4.054 -31.203,4.38 -31.039,4.701C-30.769,5.23 -30.431,5.668 -30.001,6.052C-29.547,6.457 -29.028,6.767 -28.406,7.007C-27.791,7.246 -27.186,7.362 -26.545,7.364L33.863,7.61L33.732,39.665L-48.43,39.331Z" style="fill:rgb(230,231,232);fill-rule:nonzero;"/>
        </g>
        <g transform="matrix(1,0,0,1,627.257,146.36)">
            <path d="M0,99.081L-89.657,98.717C-91.046,98.711 -92.395,98.456 -93.705,97.947C-95.015,97.442 -96.17,96.742 -97.168,95.851C-98.167,94.96 -98.973,93.916 -99.585,92.716C-100.199,91.519 -100.501,90.225 -100.495,88.836L-100.174,9.798C-100.168,8.409 -99.856,7.12 -99.232,5.925C-98.611,4.732 -97.797,3.694 -96.79,2.81C-95.784,1.928 -94.624,1.239 -93.31,0.742C-91.996,0.246 -90.645,0 -89.256,0.006L-24.105,0.271C-22.716,0.276 -21.368,0.533 -20.058,1.039C-18.749,1.547 -17.594,2.246 -16.595,3.136C-15.596,4.028 -14.791,5.073 -14.177,6.271C-13.565,7.47 -13.262,8.762 -13.267,10.151L-13.468,59.564L-78.619,59.299L-78.659,69.135C-78.664,70.525 -78.363,71.819 -77.749,73.017C-77.137,74.216 -76.332,75.261 -75.332,76.151C-74.333,77.043 -73.179,77.741 -71.868,78.248C-70.56,78.756 -69.21,79.011 -67.821,79.017L0.08,79.293L0,99.081ZM-35.143,39.687L-35.103,29.851C-35.097,28.463 -35.402,27.17 -36.013,25.971C-36.627,24.773 -37.433,23.708 -38.43,22.779C-39.43,21.849 -40.584,21.132 -41.894,20.624C-43.204,20.117 -44.552,19.861 -45.941,19.855L-67.581,19.767C-68.969,19.761 -70.321,20.007 -71.634,20.503C-72.949,21 -74.108,21.708 -75.114,22.63C-76.122,23.551 -76.935,24.609 -77.557,25.802C-78.181,26.996 -78.493,28.286 -78.498,29.675L-78.538,39.511L-35.143,39.687Z" style="fill:rgb(0,0,123);fill-rule:nonzero;"/>
        </g>
        <g transform="matrix(0.00406383,-0.999992,-0.999992,-0.00406383,690.934,213.581)">
            <rect x="-38.253" y="38.408" width="110.979" height="34.023" style="fill:rgb(230,231,232);"/>
        </g>
        <g transform="matrix(-0.999992,-0.00404483,-0.00404483,0.999992,625.107,146.677)">
            <rect x="-21.556" y="0.044" width="21.758" height="98.712" style="fill:rgb(0,0,123);"/>
        </g>
        <g transform="matrix(1,0,0,1,650.981,81.6423)">
            <path d="M0,170.029L0.627,15.772C0.637,13.398 1.188,11.148 2.266,9.085C3.231,7.23 4.522,5.584 6.099,4.199C7.653,2.836 9.454,1.761 11.454,1.004C13.472,0.243 15.573,-0.138 17.704,-0.129L78.11,0.116L77.98,32.056L39.329,31.899C38.689,31.897 38.079,32.008 37.466,32.24C36.885,32.46 36.391,32.758 35.962,33.151C35.482,33.59 35.108,34.075 34.815,34.636C34.647,34.96 34.571,35.287 34.569,35.699L34.474,59.189L77.869,59.366L77.739,91.306L34.344,91.129L34.023,170.167L0,170.029Z" style="fill:rgb(230,231,232);fill-rule:nonzero;"/>
        </g>
        <g transform="matrix(1,0,0,1,722.611,166.503)">
            <path d="M0,0.286L-43.395,0.11L-43.716,79.148L-65.472,79.059L-64.87,-69.065C-64.864,-70.453 -64.552,-71.743 -63.928,-72.937C-63.307,-74.13 -62.493,-75.168 -61.486,-76.052C-60.48,-76.934 -59.32,-77.624 -58.006,-78.121C-56.692,-78.616 -55.341,-78.862 -53.952,-78.857L0.321,-78.636L0.241,-58.963L-32.277,-59.095C-33.665,-59.101 -35.017,-58.856 -36.33,-58.36C-37.645,-57.862 -38.805,-57.155 -39.811,-56.233C-40.818,-55.312 -41.632,-54.253 -42.253,-53.061C-42.877,-51.866 -43.189,-50.576 -43.195,-49.188L-43.315,-19.563L0.08,-19.387L0,0.286Z" style="fill:rgb(0,0,123);fill-rule:nonzero;"/>
        </g>
        <g transform="matrix(1,0,0,1,792.451,212.718)">
            <path d="M0,-31.99L0.015,-35.693C0.017,-36.103 -0.057,-36.433 -0.224,-36.76C-0.509,-37.318 -0.882,-37.808 -1.359,-38.253C-1.782,-38.646 -2.275,-38.949 -2.861,-39.177C-3.466,-39.411 -4.075,-39.528 -4.713,-39.53L-26.353,-39.618C-26.992,-39.621 -27.602,-39.51 -28.215,-39.278C-28.797,-39.057 -29.291,-38.759 -29.719,-38.367C-30.2,-37.927 -30.574,-37.442 -30.867,-36.881C-31.035,-36.558 -31.111,-36.23 -31.113,-35.819L-31.128,-32.117L0,-31.99ZM-48.43,39.331C-50.571,39.322 -52.672,38.924 -54.674,38.146C-56.657,37.381 -58.454,36.289 -60.002,34.906C-61.56,33.52 -62.84,31.861 -63.796,29.985C-64.853,27.922 -65.386,25.667 -65.376,23.292L-65.055,-55.746C-65.046,-58.118 -64.495,-60.366 -63.419,-62.43C-62.448,-64.293 -61.156,-65.939 -59.581,-67.32C-58.028,-68.683 -56.226,-69.758 -54.227,-70.515C-52.212,-71.275 -50.111,-71.655 -47.979,-71.647L17.172,-71.382C19.301,-71.373 21.398,-70.976 23.403,-70.202C25.399,-69.427 27.19,-68.339 28.735,-66.966C30.303,-65.563 31.578,-63.911 32.533,-62.046C33.597,-59.958 34.128,-57.708 34.118,-55.343L33.893,0.204L-31.258,-0.061L-31.273,3.641C-31.275,4.054 -31.202,4.38 -31.038,4.703C-30.768,5.23 -30.43,5.669 -30,6.052C-29.547,6.456 -29.028,6.767 -28.406,7.007C-27.791,7.246 -27.185,7.362 -26.544,7.364L33.863,7.61L33.732,39.665L-48.43,39.331Z" style="fill:rgb(230,231,232);fill-rule:nonzero;"/>
        </g>
        <g transform="matrix(1,0,0,1,824.794,141.599)">
            <path d="M0,110.779L0.386,15.771C0.396,13.399 0.946,11.151 2.023,9.087C2.994,7.224 4.285,5.578 5.86,4.197C7.413,2.834 9.215,1.758 11.214,1.002C13.23,0.242 15.331,-0.138 17.462,-0.13L82.614,0.135C84.742,0.144 86.839,0.541 88.844,1.315C90.841,2.09 92.631,3.178 94.176,4.551C95.745,5.954 97.019,7.606 97.975,9.471C99.038,11.559 99.569,13.809 99.56,16.174L99.438,46.03L65.416,45.892L65.456,35.824C65.458,35.414 65.385,35.084 65.217,34.757C64.932,34.199 64.56,33.709 64.082,33.264C63.659,32.87 63.167,32.567 62.581,32.339C61.975,32.106 61.366,31.989 60.728,31.987L39.088,31.899C38.449,31.896 37.84,32.007 37.227,32.239C36.644,32.46 36.151,32.758 35.723,33.15C35.242,33.59 34.867,34.075 34.575,34.636C34.406,34.959 34.33,35.286 34.329,35.698L34.023,110.917L0,110.779Z" style="fill:rgb(230,231,232);fill-rule:nonzero;"/>
        </g>
        <g transform="matrix(1,0,0,1,918.124,212.483)">
            <path d="M0,-31.013L-21.756,-31.101L-21.74,-35.036C-21.734,-36.424 -22.037,-37.717 -22.649,-38.916C-23.263,-40.114 -24.069,-41.179 -25.066,-42.108C-26.066,-43.038 -27.221,-43.755 -28.53,-44.263C-29.841,-44.77 -31.188,-45.026 -32.577,-45.032L-54.217,-45.12C-55.605,-45.125 -56.957,-44.88 -58.27,-44.384C-59.585,-43.887 -60.745,-43.179 -61.751,-42.257C-62.758,-41.336 -63.572,-40.278 -64.193,-39.085C-64.816,-37.891 -65.129,-36.601 -65.135,-35.212L-65.415,33.874L-87.171,33.785L-86.81,-55.089C-86.804,-56.478 -86.492,-57.767 -85.869,-58.962C-85.247,-60.155 -84.433,-61.193 -83.425,-62.077C-82.42,-62.958 -81.261,-63.648 -79.946,-64.145C-78.633,-64.641 -77.281,-64.887 -75.893,-64.881L-10.741,-64.616C-9.352,-64.611 -8.005,-64.354 -6.694,-63.848C-5.385,-63.34 -4.231,-62.641 -3.23,-61.751C-2.233,-60.859 -1.427,-59.814 -0.813,-58.616C-0.202,-57.417 0.102,-56.125 0.096,-54.736L0,-31.013Z" style="fill:rgb(0,0,123);fill-rule:nonzero;"/>
        </g>
        <g transform="matrix(1,0,0,1,798.56,206.67)">
            <path d="M0,-19.783L0.04,-29.619C0.046,-31.008 -0.258,-32.3 -0.87,-33.5C-1.483,-34.697 -2.289,-35.762 -3.287,-36.692C-4.286,-37.622 -5.441,-38.339 -6.75,-38.847C-8.061,-39.353 -9.408,-39.61 -10.797,-39.615L-32.437,-39.703C-33.826,-39.709 -35.177,-39.463 -36.49,-38.968C-37.805,-38.47 -38.965,-37.763 -39.971,-36.841C-40.978,-35.92 -41.792,-34.861 -42.414,-33.669C-43.037,-32.474 -43.349,-31.184 -43.355,-29.796L-43.395,-19.959L0,-19.783ZM53.853,39.687L-54.514,39.246C-55.903,39.241 -57.252,38.985 -58.561,38.477C-59.872,37.972 -61.026,37.272 -62.024,36.38C-63.024,35.49 -63.83,34.445 -64.442,33.246C-65.055,32.048 -65.357,30.754 -65.352,29.366L-65.03,-49.673C-65.025,-51.061 -64.712,-52.351 -64.089,-53.545C-63.467,-54.738 -62.654,-55.776 -61.646,-56.66C-60.641,-57.542 -59.481,-58.232 -58.166,-58.729C-56.853,-59.224 -55.502,-59.47 -54.113,-59.465L11.039,-59.2C12.427,-59.194 13.775,-58.937 15.086,-58.431C16.395,-57.923 17.549,-57.224 18.549,-56.334C19.547,-55.442 20.352,-54.398 20.967,-53.2C21.578,-52 21.882,-50.708 21.876,-49.319L21.675,0.094L-43.475,-0.171L-43.515,9.665C-43.521,11.055 -43.219,12.349 -42.606,13.546C-41.994,14.746 -41.188,15.79 -40.188,16.681C-39.19,17.572 -38.036,18.271 -36.725,18.777C-35.416,19.286 -34.066,19.541 -32.678,19.546L53.933,19.898L53.853,39.687Z" style="fill:rgb(0,0,123);fill-rule:nonzero;"/>
        </g>
    </g>
    <defs>
        <radialGradient id="_Radial1" cx="0" cy="0" r="1" gradientUnits="userSpaceOnUse" gradientTransform="matrix(1,0,0,-1,-2.22045e-16,-0.000333485)"><stop offset="0" style="stop-color:rgb(0,0,255);stop-opacity:1"/><stop offset="1" style="stop-color:rgb(0,0,82);stop-opacity:1"/></radialGradient>
        <radialGradient id="_Radial2" cx="0" cy="0" r="1" gradientUnits="userSpaceOnUse" gradientTransform="matrix(1,0,0,-1,-4.44089e-16,0.0370363)"><stop offset="0" style="stop-color:rgb(0,0,255);stop-opacity:1"/><stop offset="1" style="stop-color:rgb(0,0,82);stop-opacity:1"/></radialGradient>
        <linearGradient id="_Linear3" x1="0" y1="0" x2="1" y2="0" gradientUnits="userSpaceOnUse" gradientTransform="matrix(1,-8.67362e-19,-8.67362e-19,-1,-4.44089e-16,6.84737e-08)"><stop offset="0" style="stop-color:rgb(0,0,112);stop-opacity:1"/><stop offset="1" style="stop-color:rgb(0,0,255);stop-opacity:1"/></linearGradient>
        <linearGradient id="_Linear4" x1="0" y1="0" x2="1" y2="0" gradientUnits="userSpaceOnUse" gradientTransform="matrix(1,0,0,-1,0,3.02366e-06)"><stop offset="0" style="stop-color:rgb(0,0,112);stop-opacity:1"/><stop offset="1" style="stop-color:rgb(0,0,255);stop-opacity:1"/></linearGradient>
        <linearGradient id="_Linear5" x1="0" y1="0" x2="1" y2="0" gradientUnits="userSpaceOnUse" gradientTransform="matrix(1,0,0,-1,8.88178e-16,-6.22692e-06)"><stop offset="0" style="stop-color:rgb(0,0,112);stop-opacity:1"/><stop offset="1" style="stop-color:rgb(0,0,255);stop-opacity:1"/></linearGradient>
        <linearGradient id="_Linear6" x1="0" y1="0" x2="1" y2="0" gradientUnits="userSpaceOnUse" gradientTransform="matrix(1,-2.82028e-06,-2.82028e-06,-1,4.16602e-11,2.95446e-05)"><stop offset="0" style="stop-color:rgb(0,0,112);stop-opacity:1"/><stop offset="1" style="stop-color:rgb(0,0,255);stop-opacity:1"/></linearGradient>
        <linearGradient id="_Linear7" x1="0" y1="0" x2="1" y2="0" gradientUnits="userSpaceOnUse" gradientTransform="matrix(1,-7.97272e-06,-7.97272e-06,-1,-3.52995e-11,-8.8542e-06)"><stop offset="0" style="stop-color:rgb(0,0,112);stop-opacity:1"/><stop offset="1" style="stop-color:rgb(0,0,255);stop-opacity:1"/></linearGradient>
        <linearGradient id="_Linear8" x1="0" y1="0" x2="1" y2="0" gradientUnits="userSpaceOnUse" gradientTransform="matrix(1,8.67362e-19,8.67362e-19,-1,0,5.59991e-06)"><stop offset="0" style="stop-color:rgb(0,0,112);stop-opacity:1"/><stop offset="1" style="stop-color:rgb(0,0,255);stop-opacity:1"/></linearGradient>
        <linearGradient id="_Linear9" x1="0" y1="0" x2="1" y2="0" gradientUnits="userSpaceOnUse" gradientTransform="matrix(1,-8.67362e-19,-8.67362e-19,-1,0,2.33797e-06)"><stop offset="0" style="stop-color:rgb(0,0,112);stop-opacity:1"/><stop offset="1" style="stop-color:rgb(0,0,255);stop-opacity:1"/></linearGradient>
        <linearGradient id="_Linear10" x1="0" y1="0" x2="1" y2="0" gradientUnits="userSpaceOnUse" gradientTransform="matrix(1,-8.67362e-19,-8.67362e-19,-1,-1.77636e-15,-8.33191e-06)"><stop offset="0" style="stop-color:rgb(0,0,112);stop-opacity:1"/><stop offset="1" style="stop-color:rgb(0,0,255);stop-opacity:1"/></linearGradient>
    </defs>
</svg>
